<?xml version="1.0" encoding="UTF-8"?> <!-- Generator: Adobe Illustrator 23.0.2, SVG Export Plug-In . SVG Version: 6.00 Build 0) --> <svg xmlns="http://www.w3.org/2000/svg" xmlns:xlink="http://www.w3.org/1999/xlink" id="Layer_1" x="0px" y="0px" viewBox="0 0 1000 1000" style="enable-background:new 0 0 1000 1000;" xml:space="preserve"> <style type="text/css"> .st0{fill-rule:evenodd;clip-rule:evenodd;} </style> <g> <polygon class="st0" points="505.5,341.93 505.5,425.68 481.41,425.68 481.41,341.93 408.88,383.8 396.83,362.94 469.36,321.07 396.83,279.19 408.88,258.33 481.41,300.2 481.41,216.45 505.5,216.45 505.5,300.2 578.03,258.33 590.07,279.19 517.54,321.07 590.07,362.94 578.03,383.8 "></polygon> <g> <polygon class="st0" points="371.94,661.7 371.94,728.39 346.8,728.39 346.8,638.07 433.71,638.07 433.71,661.7 "></polygon> <polygon class="st0" points="239,661.7 239,728.39 213.86,728.39 213.86,638.07 300.78,638.07 300.78,661.7 "></polygon> <rect x="480.99" y="638.07" class="st0" width="25.14" height="90.32"></rect> <polygon class="st0" points="899.06,638.07 899.06,704.75 959.48,704.75 959.48,728.39 899.06,728.39 878.67,728.39 873.91,728.39 873.91,638.07 "></polygon> <polygon class="st0" points="578.55,638.07 616.22,703.32 653.89,638.07 682.92,638.07 630.78,728.39 630.7,728.39 601.75,728.39 601.66,728.39 549.52,638.07 "></polygon> <polygon class="st0" points="728.88,728.39 766.55,663.14 804.22,728.39 833.25,728.39 781.11,638.07 781.02,638.07 752.07,638.07 751.99,638.07 699.85,728.39 "></polygon> <polygon class="st0" points="69.29,728.39 106.96,663.14 144.63,728.39 173.66,728.39 121.52,638.07 121.44,638.07 92.49,638.07 92.4,638.07 40.26,728.39 "></polygon> </g> </g> </svg> 